<svg width="96" height="34" viewBox="0 0 96 34" fill="none" xmlns="http://www.w3.org/2000/svg">
<path d="M15.605 16.38C16.865 16.59 17.96 17.07 18.89 17.82C19.85 18.54 20.585 19.47 21.095 20.61C21.605 21.72 21.86 22.98 21.86 24.39C21.86 26.25 21.395 27.87 20.465 29.25C19.565 30.63 18.275 31.695 16.595 32.445C14.915 33.225 12.935 33.615 10.655 33.615C8.375 33.615 6.365 33.21 4.625 32.4C2.885 31.62 1.49 30.48 0.44 28.98L3.455 25.56C4.175 26.64 5.105 27.495 6.245 28.125C7.385 28.785 8.825 29.115 10.565 29.115C12.515 29.115 14.03 28.695 15.11 27.855C16.19 27.015 16.73 25.755 16.73 24.075C16.73 22.335 16.13 20.97 14.93 19.98C13.76 18.99 11.99 18.495 9.62 18.495H8.405V14.625H9.755C11.765 14.625 13.31 14.16 14.39 13.23C15.47 12.27 16.01 11.07 16.01 9.63C16.01 8.67 15.785 7.89 15.335 7.29C14.915 6.66 14.315 6.195 13.535 5.895C12.755 5.595 11.855 5.445 10.835 5.445C9.305 5.445 7.955 5.775 6.785 6.435C5.615 7.095 4.685 8.04 3.995 9.27L0.89 5.895C1.49 4.935 2.315 4.095 3.365 3.375C4.415 2.655 5.615 2.1 6.965 1.71C8.345 1.29 9.8 1.08 11.33 1.08C13.31 1.08 15.05 1.41 16.55 2.07C18.05 2.73 19.205 3.66 20.015 4.86C20.855 6.06 21.275 7.47 21.275 9.09C21.275 10.26 21.05 11.37 20.6 12.42C20.15 13.44 19.49 14.31 18.62 15.03C17.75 15.72 16.745 16.17 15.605 16.38ZM49.0323 13.815C49.0323 16.455 48.5223 18.81 47.5023 20.88C46.5123 22.92 45.1473 24.525 43.4073 25.695C41.6973 26.865 39.7323 27.45 37.5123 27.45C35.3223 27.45 33.3573 26.865 31.6173 25.695C29.8773 24.525 28.4973 22.92 27.4773 20.88C26.4873 18.81 25.9923 16.455 25.9923 13.815C25.9923 11.175 26.4873 8.835 27.4773 6.795C28.4973 4.725 29.8773 3.105 31.6173 1.935C33.3573 0.734999 35.3223 0.135 37.5123 0.135C39.7323 0.135 41.6973 0.734999 43.4073 1.935C45.1473 3.105 46.5123 4.725 47.5023 6.795C48.5223 8.835 49.0323 11.175 49.0323 13.815ZM43.9923 13.815C43.9923 12.015 43.7223 10.44 43.1823 9.09C42.6423 7.71 41.8773 6.645 40.8873 5.895C39.8973 5.115 38.7723 4.725 37.5123 4.725C36.2223 4.725 35.0823 5.115 34.0923 5.895C33.1023 6.645 32.3223 7.71 31.7523 9.09C31.2123 10.44 30.9423 12.015 30.9423 13.815C30.9423 15.615 31.2123 17.19 31.7523 18.54C32.3223 19.89 33.1023 20.955 34.0923 21.735C35.0823 22.485 36.2223 22.86 37.5123 22.86C38.7723 22.86 39.8823 22.485 40.8423 21.735C41.8323 20.955 42.5973 19.89 43.1373 18.54C43.7073 17.19 43.9923 15.615 43.9923 13.815ZM76.6739 13.815C76.6739 16.455 76.1639 18.81 75.1439 20.88C74.1539 22.92 72.7889 24.525 71.0489 25.695C69.3389 26.865 67.3739 27.45 65.1539 27.45C62.9639 27.45 60.9989 26.865 59.2589 25.695C57.5189 24.525 56.1389 22.92 55.1189 20.88C54.1289 18.81 53.6339 16.455 53.6339 13.815C53.6339 11.175 54.1289 8.835 55.1189 6.795C56.1389 4.725 57.5189 3.105 59.2589 1.935C60.9989 0.734999 62.9639 0.135 65.1539 0.135C67.3739 0.135 69.3389 0.734999 71.0489 1.935C72.7889 3.105 74.1539 4.725 75.1439 6.795C76.1639 8.835 76.6739 11.175 76.6739 13.815ZM71.6339 13.815C71.6339 12.015 71.3639 10.44 70.8239 9.09C70.2839 7.71 69.5189 6.645 68.5289 5.895C67.5389 5.115 66.4139 4.725 65.1539 4.725C63.8639 4.725 62.7239 5.115 61.7339 5.895C60.7439 6.645 59.9639 7.71 59.3939 9.09C58.8539 10.44 58.5839 12.015 58.5839 13.815C58.5839 15.615 58.8539 17.19 59.3939 18.54C59.9639 19.89 60.7439 20.955 61.7339 21.735C62.7239 22.485 63.8639 22.86 65.1539 22.86C66.4139 22.86 67.5239 22.485 68.4839 21.735C69.4739 20.955 70.2389 19.89 70.7789 18.54C71.3489 17.19 71.6339 15.615 71.6339 13.815ZM95.6305 9.045V13.005H90.6355V18.45H86.1805V13.005H81.1855V9.045H86.1805V3.6H90.6355V9.045H95.6305Z" fill="#FD7A22"/>
</svg>
