<svg width="40" height="33" viewBox="0 0 40 33" fill="none" xmlns="http://www.w3.org/2000/svg">
<path d="M10.79 32.705C8.48 32.705 6.41 32.18 4.58 31.13C2.75 30.11 1.355 28.715 0.395 26.945L3.365 24.11C4.205 25.4 5.285 26.42 6.605 27.17C7.925 27.95 9.335 28.34 10.835 28.34C12.065 28.34 13.16 28.07 14.12 27.53C15.08 27.02 15.83 26.3 16.37 25.37C16.94 24.41 17.225 23.315 17.225 22.085C17.225 20.885 16.955 19.835 16.415 18.935C15.875 18.005 15.155 17.3 14.255 16.82C13.355 16.31 12.32 16.055 11.15 16.055C10.01 16.055 8.945 16.31 7.955 16.82C6.965 17.33 6.155 18.05 5.525 18.98H1.16L4.805 0.304998H20.42V4.85H8.405L6.785 13.58C7.295 13.04 7.985 12.605 8.855 12.275C9.725 11.915 10.715 11.735 11.825 11.735C13.835 11.735 15.62 12.185 17.18 13.085C18.77 13.955 20.015 15.155 20.915 16.685C21.845 18.215 22.31 19.985 22.31 21.995C22.31 24.125 21.8 25.985 20.78 27.575C19.76 29.195 18.38 30.455 16.64 31.355C14.9 32.255 12.95 32.705 10.79 32.705ZM39.6881 8.045V12.005H34.6931V17.45H30.2381V12.005H25.2431V8.045H30.2381V2.6H34.6931V8.045H39.6881Z" fill="#FD7A22"/>
</svg>
