<svg width="66" height="66" viewBox="0 0 66 66" fill="none" xmlns="http://www.w3.org/2000/svg">
<path d="M64.27 64.75H1.73C1.33 64.75 1 64.42 1 64.02C1 63.62 1.33 63.29 1.73 63.29H64.26C64.66 63.29 64.99 63.62 64.99 64.02C65 64.43 64.67 64.75 64.27 64.75Z" fill="#6747FA"/>
<path d="M59.7598 64.75H6.23977C5.83977 64.75 5.50977 64.42 5.50977 64.02V36.73C5.50977 36.33 5.83977 36 6.23977 36H59.7598C60.1598 36 60.4898 36.33 60.4898 36.73V64.02C60.4898 64.43 60.1698 64.75 59.7598 64.75ZM6.96977 63.29H59.0198V37.46H6.96977V63.29Z" fill="#6747FA"/>
<path d="M44.0095 32.74H21.9995C21.5995 32.74 21.2695 32.41 21.2695 32.01V15.94C21.2695 15.54 21.5995 15.21 21.9995 15.21H44.0095C44.4095 15.21 44.7395 15.54 44.7395 15.94V32.01C44.7395 32.42 44.4095 32.74 44.0095 32.74ZM22.7295 31.28H43.2695V16.68H22.7295V31.28Z" fill="#6747FA"/>
<path d="M47.6198 16.6701H18.3898C18.0898 16.6701 17.8198 16.4901 17.7098 16.2101C17.5998 15.9301 17.6698 15.6101 17.8798 15.4101L32.4898 1.45006C32.7698 1.18006 33.2198 1.18006 33.4998 1.45006L48.1198 15.4101C48.3398 15.6201 48.4098 15.9301 48.2898 16.2101C48.1898 16.4901 47.9198 16.6701 47.6198 16.6701ZM20.2098 15.2101H45.7798L32.9998 2.99006L20.2098 15.2101Z" fill="#6747FA"/>
<path d="M61.9101 37.4603H4.10012C3.70012 37.4603 3.37012 37.1303 3.37012 36.7303V32.0103C3.37012 31.6103 3.70012 31.2803 4.10012 31.2803H61.9101C62.3101 31.2803 62.6401 31.6103 62.6401 32.0103V36.7303C62.6401 37.1303 62.3101 37.4603 61.9101 37.4603ZM4.83012 36.0003H61.1701V32.7503H4.83012V36.0003Z" fill="#6747FA"/>
<path d="M39.8499 64.75H26.1499C25.7499 64.75 25.4199 64.42 25.4199 64.02V50.54C25.4199 46.36 28.8199 42.96 32.9999 42.96C37.1799 42.96 40.5799 46.36 40.5799 50.54V64.02C40.5799 64.43 40.2599 64.75 39.8499 64.75ZM26.8799 63.29H39.1199V50.54C39.1199 47.17 36.3799 44.42 32.9999 44.42C29.6299 44.42 26.8799 47.16 26.8799 50.54V63.29Z" fill="#6747FA"/>
<path d="M59.8 31.7899V20.8399C59.8 20.4399 59.47 20.1099 59.07 20.1099H49.77C49.37 20.1099 49.04 20.4399 49.04 20.8399V31.7899H59.8ZM50.5 21.5799H58.34V31.2799H50.5V21.5799Z" fill="#6747FA"/>
<path d="M61.4204 21.5796H47.4204C47.0204 21.5796 46.6904 21.2496 46.6904 20.8496C46.6904 20.4496 47.0204 20.1196 47.4204 20.1196H61.4204C61.8204 20.1196 62.1504 20.4496 62.1504 20.8496C62.1504 21.2496 61.8204 21.5796 61.4204 21.5796Z" fill="#6747FA"/>
<path d="M16.97 31.7899V20.8399C16.97 20.4399 16.64 20.1099 16.24 20.1099H6.93996C6.53996 20.1099 6.20996 20.4399 6.20996 20.8399V31.7899H16.97ZM7.66996 21.5799H15.51V31.2799H7.66996V21.5799Z" fill="#6747FA"/>
<path d="M18.5904 21.5796H4.59035C4.19035 21.5796 3.86035 21.2496 3.86035 20.8496C3.86035 20.4496 4.19035 20.1196 4.59035 20.1196H18.5904C18.9904 20.1196 19.3204 20.4496 19.3204 20.8496C19.3204 21.2496 18.9904 21.5796 18.5904 21.5796Z" fill="#6747FA"/>
<path d="M37.1001 56.1998C36.7001 56.1998 36.3701 55.8698 36.3701 55.4698V54.5698C36.3701 54.1698 36.7001 53.8398 37.1001 53.8398C37.5001 53.8398 37.8301 54.1698 37.8301 54.5698V55.4698C37.8401 55.8698 37.5101 56.1998 37.1001 56.1998Z" fill="#6747FA"/>
</svg>
