<svg width="64" height="64" viewBox="0 0 64 64" fill="none" xmlns="http://www.w3.org/2000/svg">
<path d="M63.5 15.9998C63.2 15.7998 62.8 15.6998 62.5 15.8998L42.1 23.1998L27.8 17.9998C28.6 15.9998 29 14.1998 29 12.6998C29 9.9998 28 7.5998 26.1 5.6998C24.2 3.7998 21.7 2.7998 19.1 2.7998C13.6 2.7998 9.2 7.1998 9.2 12.6998C9.2 14.5998 9.9 16.8998 11.1 19.6998L0.7 23.1998C0.3 23.3998 0 23.7998 0 24.1998V60.1998C0 60.5998 0.2 60.8998 0.5 61.0998C0.7 61.1998 0.9 61.2998 1.1 61.2998C1.2 61.2998 1.4 61.2998 1.5 61.1998L21.9 53.9998L41.7 61.2998C41.9 61.3998 42.2 61.3998 42.4 61.2998L63.2 53.8998C63.6 53.6998 63.9 53.2998 63.9 52.8998V16.8998C64 16.4998 63.8 16.1998 63.5 15.9998ZM19.1 4.7998C21.2 4.7998 23.1 5.5998 24.5 7.0998C26 8.4998 26.8 10.4998 26.8 12.4998C26.8 13.8998 26.3 15.7998 25.3 17.9998C23.5 21.9998 20.5 26.1998 19.1 28.0998C18.9 27.8998 18.8 27.6998 18.6 27.3998C17.3 25.5998 15.2 22.5998 13.7 19.4998C12.2 16.5998 11.5 14.1998 11.5 12.3998C11.4 8.2998 14.9 4.7998 19.1 4.7998ZM61.8 52.0998L42.1 59.0998L22.3 51.7998C22.2 51.7998 22 51.6998 21.9 51.6998C21.8 51.6998 21.6 51.6998 21.5 51.7998L2.2 58.6998V24.9998L12.2 21.4998C12.2 21.4998 12.2 21.4998 12.2 21.5998C12.3 21.6998 12.3 21.7998 12.4 21.8998C12.5 22.0998 12.6 22.2998 12.7 22.4998C12.8 22.5998 12.8 22.6998 12.9 22.7998C13 22.9998 13.1 23.1998 13.2 23.3998C13.3 23.4998 13.3 23.5998 13.4 23.6998C13.5 23.8998 13.6 24.0998 13.7 24.1998C13.8 24.2998 13.8 24.3998 13.9 24.4998C14 24.6998 14.1 24.7998 14.2 24.9998C14.3 25.0998 14.3 25.1998 14.4 25.2998C14.5 25.4998 14.6 25.5998 14.7 25.7998C14.8 25.8998 14.8 25.9998 14.9 26.0998C15 26.2998 15.1 26.3998 15.2 26.5998C15.3 26.6998 15.3 26.7998 15.4 26.8998C15.5 27.0998 15.6 27.1998 15.7 27.3998C15.8 27.4998 15.8 27.5998 15.9 27.5998C16 27.7998 16.1 27.8998 16.2 27.9998C16.2 28.0998 16.3 28.0998 16.3 28.1998C16.4 28.3998 16.5 28.4998 16.6 28.5998L16.7 28.6998C16.8 28.7998 16.9 28.9998 17 29.0998L17.1 29.1998C17.2 29.2998 17.3 29.4998 17.4 29.5998C17.5 29.6998 17.6 29.7998 17.7 29.8998C17.9 30.1998 18.1 30.3998 18.1 30.4998C18.3 30.7998 18.6 30.8998 19 30.8998C19.3 30.8998 19.6 30.6998 19.9 30.4998C19.9 30.4998 20 30.3998 20.2 30.1998L20.3 30.0998C20.4 29.9998 20.4 29.9998 20.5 29.8998L20.6 29.7998C20.7 29.6998 20.7 29.5998 20.8 29.4998C20.8 29.3998 20.9 29.3998 20.9 29.2998C21 29.1998 21.1 29.0998 21.1 28.9998C21.2 28.8998 21.2 28.7998 21.3 28.6998C21.4 28.5998 21.5 28.4998 21.6 28.2998C21.7 28.1998 21.7 28.0998 21.8 27.9998C21.9 27.8998 22 27.7998 22.1 27.5998C22.2 27.4998 22.3 27.3998 22.3 27.2998C22.4 27.1998 22.5 26.9998 22.6 26.8998C22.7 26.7998 22.8 26.5998 22.9 26.4998C23 26.3998 23.1 26.1998 23.2 26.0998C23.3 25.9998 23.4 25.7998 23.5 25.6998C23.6 25.4998 23.7 25.3998 23.8 25.1998C23.9 25.0998 24 24.8998 24.1 24.7998C24.2 24.5998 24.3 24.4998 24.4 24.2998C24.5 24.0998 24.6 23.9998 24.7 23.7998C24.8 23.5998 24.9 23.4998 25 23.2998C25.1 23.0998 25.2 22.9998 25.3 22.7998C25.4 22.5998 25.5 22.4998 25.6 22.2998C25.7 22.0998 25.8 21.9998 25.9 21.7998C26 21.5998 26.1 21.4998 26.2 21.2998C26.3 21.0998 26.4 20.9998 26.5 20.7998C26.6 20.5998 26.7 20.3998 26.8 20.2998C26.9 20.0998 27 19.9998 27 19.7998C27 19.7998 27 19.7998 27 19.6998L41.8 25.0998C42 25.1998 42.3 25.1998 42.5 25.0998L61.8 18.1998V52.0998Z" fill="#6747FA"/>
<path d="M52.5003 42.3999C52.7003 42.4999 53.0003 42.4999 53.2003 42.4999C53.8003 42.4999 54.4003 42.2999 54.9003 41.9999C55.6003 41.4999 56.1003 40.7999 56.3003 39.9999C56.5003 39.1999 56.3003 38.2999 55.9003 37.5999C55.4003 36.8999 54.7003 36.3999 53.9003 36.1999C52.2003 35.7999 50.4003 36.8999 50.0003 38.5999C49.8003 39.3999 50.0003 40.2999 50.4003 40.9999C51.0003 41.6999 51.7003 42.1999 52.5003 42.3999ZM52.2003 38.9999C52.3003 38.3999 52.9003 38.0999 53.4003 38.1999C53.7003 38.2999 53.9003 38.3999 54.0003 38.6999C54.1003 38.8999 54.2003 39.1999 54.1003 39.4999C54.0003 39.7999 53.9003 39.9999 53.6003 40.0999C53.4003 40.1999 53.1003 40.2999 52.8003 40.1999C52.5003 40.0999 52.3003 39.9999 52.2003 39.6999C52.2003 39.4999 52.2003 39.2999 52.2003 38.9999Z" fill="#6747FA"/>
<path d="M10.9999 39.0999L10.2999 39.4999L9.8999 38.7999C9.5999 38.2999 8.8999 38.0999 8.3999 38.4999C7.8999 38.7999 7.6999 39.4999 8.0999 39.9999L8.4999 40.6999L7.7999 41.0999C7.2999 41.3999 7.0999 42.0999 7.4999 42.5999C7.5999 42.9999 7.9999 43.0999 8.2999 43.0999C8.4999 43.0999 8.6999 42.9999 8.8999 42.8999L9.5999 42.4999L9.9999 43.1999C10.1999 43.4999 10.5999 43.6999 10.8999 43.6999C11.0999 43.6999 11.2999 43.5999 11.4999 43.4999C11.9999 43.1999 12.1999 42.4999 11.7999 41.9999L11.3999 41.2999L12.0999 40.8999C12.5999 40.5999 12.7999 39.8999 12.3999 39.3999C12.1999 38.8999 11.4999 38.7999 10.9999 39.0999Z" fill="#6747FA"/>
<path d="M21.3001 42.0998C20.0001 42.0998 18.3001 41.8998 17.2001 41.5998C16.6001 41.4998 16.0001 41.8998 15.9001 42.4998C15.8001 43.0998 16.2001 43.6998 16.8001 43.7998C17.9001 43.9998 19.7001 44.2998 21.3001 44.2998C21.9001 44.2998 22.4001 43.7998 22.4001 43.1998C22.4001 42.5998 21.9001 42.0998 21.3001 42.0998Z" fill="#6747FA"/>
<path d="M29.4996 38.2996C28.7996 39.2996 27.9996 40.0996 26.9996 40.6996C26.6996 40.8996 26.2996 41.0996 25.8996 41.2996C25.2996 41.4996 25.0996 42.1996 25.2996 42.7996C25.4996 43.1996 25.8996 43.4996 26.2996 43.4996C26.3996 43.4996 26.5996 43.4996 26.6996 43.3996C27.1996 43.1996 27.5996 42.9996 27.9996 42.6996C29.1996 41.8996 30.1996 40.9996 31.0996 39.7996C31.4996 39.2996 31.3996 38.5996 30.8996 38.2996C30.5996 37.6996 29.8996 37.7996 29.4996 38.2996Z" fill="#6747FA"/>
<path d="M37.4996 31.0996C36.3996 31.0996 35.7996 31.3996 35.1996 31.5996C33.7996 32.1996 32.5996 33.4996 32.2996 33.8996C31.8996 34.3996 31.9996 35.0996 32.3996 35.4996C32.5996 35.6996 32.8996 35.7996 33.0996 35.7996C33.3996 35.7996 33.6996 35.6996 33.8996 35.3996C34.3996 34.7996 35.1996 34.0996 35.9996 33.6996C36.5996 33.4996 36.7996 33.3996 37.4996 33.2996C38.0996 33.2996 38.5996 32.7996 38.5996 32.1996C38.5996 31.5996 38.0996 31.0996 37.4996 31.0996Z" fill="#6747FA"/>
<path d="M41.6004 32.7997C41.4004 33.3997 41.6004 33.9997 42.2004 34.2997C43.3004 34.7997 44.9004 35.5997 46.1004 36.4997C46.3004 36.5997 46.5004 36.6997 46.7004 36.6997C47.1004 36.6997 47.4004 36.4997 47.6004 36.1997C47.9004 35.6997 47.8004 34.9997 47.3004 34.6997C45.9004 33.7997 44.3004 32.8997 43.0004 32.3997C42.5004 31.9997 41.9004 32.2997 41.6004 32.7997Z" fill="#6747FA"/>
<path d="M19.1002 15.1999C21.0002 15.1999 22.5002 13.6999 22.5002 11.7999C22.5002 9.8999 21.0002 8.3999 19.1002 8.3999C17.2002 8.3999 15.7002 9.8999 15.7002 11.7999C15.7002 13.6999 17.3002 15.1999 19.1002 15.1999ZM19.1002 10.5999C19.7002 10.5999 20.3002 11.0999 20.3002 11.7999C20.3002 12.3999 19.8002 12.9999 19.1002 12.9999C18.5002 12.9999 17.9002 12.4999 17.9002 11.7999C18.0002 11.1999 18.5002 10.5999 19.1002 10.5999Z" fill="#6747FA"/>
</svg>
