<svg width="82" height="82" viewBox="0 0 82 82" fill="none" xmlns="http://www.w3.org/2000/svg">
<path d="M77.303 75.1455H67.7097V46.8331H77.303C77.5197 46.8331 77.7274 46.747 77.8806 46.5938C78.0338 46.4406 78.1198 46.2329 78.1198 46.0163C78.1198 45.7996 78.0338 45.5919 77.8806 45.4387C77.7274 45.2855 77.5197 45.1995 77.303 45.1995H66.8929C66.6763 45.1995 66.4685 45.2855 66.3153 45.4387C66.1621 45.5919 66.0761 45.7996 66.0761 46.0163V53.7983H58.0571C58.0872 53.7117 58.1029 53.6208 58.1035 53.5292V29.4689H65.1344C65.303 29.469 65.4675 29.417 65.6053 29.3199C65.7432 29.2228 65.8476 29.0855 65.9043 28.9267C65.9609 28.7679 65.9671 28.5954 65.9219 28.433C65.8766 28.2706 65.7823 28.1262 65.6517 28.0195L54.5432 18.9386V7.90708C54.5432 7.69046 54.4572 7.4827 54.304 7.32952C54.1508 7.17634 53.9431 7.09029 53.7264 7.09029H45.4608C45.2441 7.09029 45.0364 7.17634 44.8832 7.32952C44.73 7.4827 44.644 7.69046 44.644 7.90708V10.8395L37.9991 5.40544C37.8529 5.28657 37.6702 5.22168 37.4818 5.22168C37.2934 5.22168 37.1107 5.28657 36.9645 5.40544L9.31191 28.0131C9.17877 28.1191 9.08205 28.264 9.03527 28.4276C8.98848 28.5912 8.99395 28.7653 9.05093 28.9257C9.1079 29.086 9.21353 29.2245 9.35306 29.3219C9.49259 29.4193 9.65906 29.4707 9.82921 29.4689H16.8585V48.606L11.4276 47.2895C10.0586 46.9545 8.6186 47.0637 7.3158 47.6012C6.013 48.1388 4.91496 49.0768 4.1805 50.2796C3.90856 50.7238 3.8184 51.2557 3.92878 51.7646C4.03916 52.2736 4.34158 52.7203 4.77308 53.0119L30.0185 70.0861C32.1 71.4915 34.5539 72.2428 37.0654 72.2434C37.4658 72.2434 37.8662 72.2242 38.2682 72.1842L57.6903 70.3088H66.0761V75.9623C66.0761 76.1789 66.1621 76.3867 66.3153 76.5398C66.4685 76.693 66.6763 76.7791 66.8929 76.7791H77.303C77.5197 76.7791 77.7274 76.693 77.8806 76.5398C78.0338 76.3867 78.1198 76.1789 78.1198 75.9623C78.1198 75.7457 78.0338 75.5379 77.8806 75.3847C77.7274 75.2315 77.5197 75.1455 77.303 75.1455ZM17.6753 27.8289H12.1178L37.477 7.09349L44.9403 13.1938C45.0595 13.296 45.2057 13.3615 45.3613 13.3825C45.5169 13.4035 45.6753 13.3792 45.8174 13.3124C45.9595 13.2455 46.0792 13.1391 46.1623 13.0059C46.2454 12.8726 46.2882 12.7182 46.2856 12.5612V8.71748H52.9176V19.3118C52.9175 19.4329 52.9442 19.5525 52.996 19.6619C53.0478 19.7713 53.1234 19.8678 53.2171 19.9444L62.8537 27.8225H57.2867C57.0701 27.8225 56.8623 27.9086 56.7091 28.0618C56.556 28.2149 56.4699 28.4227 56.4699 28.6393V52.4802C53.2798 49.9385 49.3781 48.4519 45.3054 48.2264V35.9569C45.3033 33.901 44.4856 31.9299 43.0317 30.4763C41.5778 29.0227 39.6066 28.2054 37.5507 28.2037H37.4113C35.3557 28.2058 33.3849 29.0233 31.9313 30.4769C30.4778 31.9304 29.6603 33.9012 29.6582 35.9569V48.196C28.7334 48.2072 27.8227 48.4237 26.9918 48.8297C26.1609 49.2358 25.4306 49.8212 24.8535 50.5439L18.4921 49.008V28.6457C18.4921 28.4291 18.406 28.2213 18.2528 28.0682C18.0996 27.915 17.8919 27.8289 17.6753 27.8289ZM43.6718 48.196H31.2917V35.9569C31.2934 34.3344 31.9387 32.7788 33.086 31.6315C34.2333 30.4843 35.7888 29.839 37.4113 29.8373H37.5507C39.1733 29.839 40.729 30.4842 41.8765 31.6314C43.0241 32.7787 43.6697 34.3342 43.6718 35.9569V48.196ZM57.6134 68.6752L38.1176 70.5586C35.5856 70.8001 33.0483 70.1548 30.9394 68.7328L5.68917 51.665C5.60495 51.6084 5.54589 51.5215 5.52439 51.4223C5.50289 51.3232 5.52062 51.2196 5.57386 51.1333C6.12866 50.224 6.95868 49.5151 7.94354 49.1093C8.9284 48.7036 10.0169 48.6221 11.0512 48.8767L23.995 52.0157C23.7538 52.7052 23.7932 53.4618 24.1048 54.1225C24.4164 54.7831 24.9752 55.2948 25.6607 55.5472L42.5475 61.7564C42.6379 61.7893 42.7333 61.8061 42.8294 61.8061C43.0207 61.8054 43.2057 61.7376 43.3521 61.6145C43.4985 61.4914 43.5971 61.3209 43.6307 61.1325C43.6642 60.9442 43.6306 60.7501 43.5357 60.584C43.4408 60.4179 43.2906 60.2904 43.1113 60.2237L26.2164 54.0129C26.0667 53.9576 25.9301 53.8717 25.8154 53.7607C25.7007 53.6498 25.6104 53.5162 25.5501 53.3684C25.4898 53.2206 25.461 53.0619 25.4654 52.9024C25.4698 52.7428 25.5074 52.586 25.5758 52.4417C25.9496 51.6615 26.5359 51.0025 27.2674 50.5404C27.9989 50.0784 28.8458 49.832 29.711 49.8296H44.2148C48.619 49.828 52.8714 51.4391 56.1688 54.3588L57.149 55.2268C57.2983 55.359 57.4909 55.4319 57.6903 55.4318H66.0761V68.672L57.6134 68.6752Z" fill="#6747FA"/>
</svg>
