<svg width="79" height="79" viewBox="0 0 79 79" fill="none" xmlns="http://www.w3.org/2000/svg">
<path d="M29.625 60.4844C29.625 61.5052 30.4557 62.3359 31.4766 62.3359H47.5234C48.5443 62.3359 49.375 61.5052 49.375 60.4844V55.9283C49.7546 55.4944 49.9922 54.9334 49.9922 54.3125C49.9922 52.951 48.885 51.8438 47.5234 51.8438H31.4766C30.115 51.8438 29.0078 52.951 29.0078 54.3125C29.0078 54.9328 29.2454 55.4938 29.625 55.9283V60.4844ZM47.5234 61.1016H31.4766C31.1359 61.1016 30.8594 60.8244 30.8594 60.4844V56.6936C31.0581 56.7455 31.2624 56.7812 31.4766 56.7812H32.0938V58.6328C32.0938 59.3136 32.6474 59.8672 33.3281 59.8672H45.6719C46.3526 59.8672 46.9062 59.3136 46.9062 58.6328V56.7812H47.5234C47.7376 56.7812 47.9419 56.7455 48.1406 56.6936V60.4844C48.1406 60.8244 47.8641 61.1016 47.5234 61.1016ZM45.6719 56.7812V58.6328H33.3281V56.7812H45.6719ZM31.4766 53.0781H47.5234C48.2042 53.0781 48.7578 53.6317 48.7578 54.3125C48.7578 54.9933 48.2042 55.5469 47.5234 55.5469H31.4766C30.7958 55.5469 30.2422 54.9933 30.2422 54.3125C30.2422 53.6317 30.7958 53.0781 31.4766 53.0781Z" fill="#6747FA"/>
<path d="M63.5703 37.6484H59.234C59.6259 37.1312 59.8672 36.4943 59.8672 35.7969V10.4922H60.4844C61.5052 10.4922 62.3359 9.66145 62.3359 8.64062V2.46875C62.3359 1.44792 61.5052 0.617188 60.4844 0.617188H18.5156C17.4948 0.617188 16.6641 1.44792 16.6641 2.46875V8.64062C16.6641 9.66145 17.4948 10.4922 18.5156 10.4922H19.1328V35.7969C19.1328 36.4943 19.3741 37.1312 19.766 37.6484H15.4297C14.4089 37.6484 13.5781 38.4792 13.5781 39.5V46.9062C13.5781 47.9271 14.4089 48.7578 15.4297 48.7578H16.0469V74.0625C16.0469 76.485 17.9447 78.3828 20.3672 78.3828H58.6328C61.0553 78.3828 62.9531 76.485 62.9531 74.0625V48.7578H63.5703C64.5911 48.7578 65.4219 47.9271 65.4219 46.9062V39.5C65.4219 38.4792 64.5911 37.6484 63.5703 37.6484ZM17.8984 8.64062V2.46875C17.8984 2.12868 18.1749 1.85156 18.5156 1.85156H60.4844C60.8251 1.85156 61.1016 2.12868 61.1016 2.46875V8.64062C61.1016 8.9807 60.8251 9.25781 60.4844 9.25781H18.5156C18.1749 9.25781 17.8984 8.9807 17.8984 8.64062ZM20.3672 35.7969V10.4922H58.6328V35.7969C58.6328 36.8004 57.7848 37.6484 56.7812 37.6484H22.2188C21.2152 37.6484 20.3672 36.8004 20.3672 35.7969ZM61.7188 74.0625C61.7188 75.7931 60.3634 77.1484 58.6328 77.1484H20.3672C18.6366 77.1484 17.2812 75.7931 17.2812 74.0625V48.7578H61.7188V74.0625ZM64.1875 46.9062C64.1875 47.2463 63.911 47.5234 63.5703 47.5234H15.4297C15.089 47.5234 14.8125 47.2463 14.8125 46.9062V39.5C14.8125 39.1599 15.089 38.8828 15.4297 38.8828H63.5703C63.911 38.8828 64.1875 39.1599 64.1875 39.5V46.9062Z" fill="#6747FA"/>
<path d="M46.2891 12.9609H32.7109C31.3494 12.9609 30.2422 14.0682 30.2422 15.4297C30.2422 16.05 30.4798 16.611 30.8594 17.0455V21.6016C30.8594 22.6224 31.6901 23.4531 32.7109 23.4531H46.2891C47.3099 23.4531 48.1406 22.6224 48.1406 21.6016V17.0455C48.5202 16.6116 48.7578 16.0506 48.7578 15.4297C48.7578 14.0682 47.6506 12.9609 46.2891 12.9609ZM32.7109 14.1953H46.2891C46.9698 14.1953 47.5234 14.7489 47.5234 15.4297C47.5234 15.7981 47.358 16.1253 47.1013 16.3518C47.0957 16.3573 47.0889 16.361 47.0834 16.3666C46.868 16.5493 46.5933 16.6641 46.2891 16.6641H32.7109C32.4067 16.6641 32.132 16.5493 31.9166 16.3666C31.9111 16.361 31.9043 16.3573 31.8987 16.3518C31.642 16.1253 31.4766 15.7981 31.4766 15.4297C31.4766 14.7489 32.0302 14.1953 32.7109 14.1953ZM34.5625 17.8984H44.4375V19.75H34.5625V17.8984ZM46.2891 22.2188H32.7109C32.3702 22.2188 32.0938 21.9416 32.0938 21.6016V17.8108C32.2925 17.8626 32.4968 17.8984 32.7109 17.8984H33.3281V19.75C33.3281 20.4308 33.8817 20.9844 34.5625 20.9844H44.4375C45.1183 20.9844 45.6719 20.4308 45.6719 19.75V17.8984H46.2891C46.5032 17.8984 46.7075 17.8626 46.9062 17.8108V21.6016C46.9062 21.9416 46.6297 22.2188 46.2891 22.2188Z" fill="#6747FA"/>
</svg>
