<svg width="32" height="32" viewBox="0 0 32 32" fill="none" xmlns="http://www.w3.org/2000/svg">
<g clip-path="url(#clip0_468_324)">
<path opacity="0.1" d="M16.004 0H15.996C7.174 0 0 7.176 0 16C0 19.5 1.128 22.744 3.046 25.378L1.052 31.322L7.202 29.356C9.732 31.032 12.75 32 16.004 32C24.826 32 32 24.822 32 16C32 7.178 24.826 0 16.004 0Z" fill="#F9F6FF"/>
<path d="M24.6783 22.5112C24.3116 23.5466 22.8563 24.4054 21.6955 24.6561C20.9013 24.8252 19.864 24.9601 16.372 23.5124C11.9055 21.6619 9.02906 17.1232 8.80487 16.8287C8.59019 16.5342 7 14.4254 7 12.2443C7 10.0633 8.10762 9.00123 8.55409 8.54526C8.92077 8.17099 9.52682 8 10.1082 8C10.2963 8 10.4654 8.0095 10.6173 8.0171C11.0638 8.0361 11.288 8.0627 11.5825 8.76755C11.9492 9.65099 12.8421 11.832 12.9485 12.0562C13.0568 12.2804 13.1651 12.5844 13.0131 12.8789C12.8706 13.1828 12.7452 13.3177 12.521 13.5761C12.2968 13.8345 12.084 14.0321 11.8599 14.3095C11.6547 14.5507 11.4229 14.8091 11.6813 15.2556C11.9397 15.6926 12.8326 17.1498 14.1473 18.3201C15.8439 19.8305 17.2194 20.313 17.7115 20.5182C18.0781 20.6702 18.5151 20.6341 18.783 20.3491C19.1231 19.9825 19.5429 19.3745 19.9704 18.776C20.2744 18.3467 20.6581 18.2935 21.0609 18.4455C21.4713 18.588 23.6428 19.6614 24.0893 19.8837C24.5358 20.1079 24.8303 20.2142 24.9385 20.4023C25.0449 20.5904 25.0449 21.4739 24.6783 22.5112Z" fill="#F9F6FF"/>
</g>
<defs>
<clipPath id="clip0_468_324">
<rect width="32" height="32" fill="white"/>
</clipPath>
</defs>
</svg>
