<svg width="32" height="32" viewBox="0 0 32 32" fill="none" xmlns="http://www.w3.org/2000/svg">
<path d="M21.9996 8.9999C21.9058 9.09286 21.8314 9.20346 21.7807 9.32532C21.7299 9.44718 21.7038 9.57789 21.7038 9.7099C21.7038 9.84191 21.7299 9.97262 21.7807 10.0945C21.8314 10.2163 21.9058 10.3269 21.9996 10.4199L26.5996 15.0199H3.05957C2.79435 15.0199 2.54 15.1253 2.35246 15.3128C2.16493 15.5003 2.05957 15.7547 2.05957 16.0199C2.05957 16.2851 2.16493 16.5395 2.35246 16.727C2.54 16.9145 2.79435 17.0199 3.05957 17.0199H26.5796L21.9996 21.5899C21.8133 21.7773 21.7088 22.0307 21.7088 22.2949C21.7088 22.5591 21.8133 22.8125 21.9996 22.9999C22.1869 23.1862 22.4404 23.2907 22.7046 23.2907C22.9688 23.2907 23.2222 23.1862 23.4096 22.9999L29.7696 16.6399C29.8552 16.5578 29.9233 16.4592 29.9698 16.3501C30.0163 16.2409 30.0403 16.1235 30.0403 16.0049C30.0403 15.8863 30.0163 15.7689 29.9698 15.6597C29.9233 15.5506 29.8552 15.452 29.7696 15.3699L23.4196 8.9999C23.3266 8.90617 23.216 8.83178 23.0941 8.78101C22.9723 8.73024 22.8416 8.7041 22.7096 8.7041C22.5776 8.7041 22.4469 8.73024 22.325 8.78101C22.2031 8.83178 22.0925 8.90617 21.9996 8.9999Z" fill="white"/>
</svg>
