<svg width="32" height="32" viewBox="0 0 32 32" fill="none" xmlns="http://www.w3.org/2000/svg">
<g clip-path="url(#clip0_468_327)">
<path opacity="0.1" d="M16 32C24.8366 32 32 24.8366 32 16C32 7.16344 24.8366 0 16 0C7.16344 0 0 7.16344 0 16C0 24.8366 7.16344 32 16 32Z" fill="#F9F6FF"/>
<path d="M19.9642 15.9827H17.5028V25H13.7736V15.9827H12V12.8136H13.7736V10.7629C13.7736 9.29638 14.4702 7 17.536 7L20.2983 7.01156V10.0877H18.2941C17.9653 10.0877 17.5031 10.2519 17.5031 10.9515V12.8166H20.29L19.9642 15.9827Z" fill="#F9F6FF"/>
</g>
<defs>
<clipPath id="clip0_468_327">
<rect width="32" height="32" fill="white"/>
</clipPath>
</defs>
</svg>
