<svg width="32" height="32" viewBox="0 0 32 32" fill="none" xmlns="http://www.w3.org/2000/svg">
<g clip-path="url(#clip0_468_307)">
<path opacity="0.1" d="M16 32C24.8366 32 32 24.8366 32 16C32 7.16344 24.8366 0 16 0C7.16344 0 0 7.16344 0 16C0 24.8366 7.16344 32 16 32Z" fill="#F9F6FF"/>
<path d="M24.4642 11.2453L24.459 11.2241C24.0315 9.49583 22.1041 7.64133 20.3341 7.25552L20.3141 7.25139C17.4513 6.70527 14.5485 6.70527 11.6862 7.25139L11.6656 7.25552C9.89627 7.64133 7.96884 9.49595 7.54077 11.2241L7.53602 11.2453C7.00752 13.6588 7.00752 16.1066 7.53602 18.5201L7.54077 18.5413C7.95065 20.1958 9.73446 21.9651 11.4384 22.4517V24.381C11.4384 25.0793 12.2893 25.4222 12.7732 24.9183L14.7279 22.8865C15.1519 22.9101 15.5761 22.9234 16.0001 22.9234C17.4412 22.9234 18.883 22.7871 20.3141 22.5141L20.334 22.51C22.104 22.1241 24.0314 20.2695 24.4589 18.5413L24.4641 18.5202C24.9926 16.1066 24.9926 13.659 24.4642 11.2453ZM22.9173 18.1702C22.6318 19.2978 21.1685 20.6995 20.0057 20.9585C18.4835 21.248 16.9492 21.3717 15.4165 21.3293C15.386 21.3284 15.3566 21.3403 15.3355 21.3621C15.1179 21.5854 13.9083 22.8273 13.9083 22.8273L12.3903 24.3853C12.2793 24.501 12.0843 24.4222 12.0843 24.2625V21.0665C12.0843 21.0137 12.0466 20.9689 11.9947 20.9586C11.9944 20.9585 11.9941 20.9585 11.9938 20.9585C10.8311 20.6995 9.36821 19.2977 9.08227 18.1701C8.60659 15.9885 8.60659 13.7769 9.08227 11.5953C9.36821 10.4677 10.8311 9.06595 11.9938 8.80695C14.6523 8.30133 17.3478 8.30133 20.0058 8.80695C21.1691 9.06595 22.6319 10.4677 22.9173 11.5953C23.3935 13.777 23.3935 15.9886 22.9173 18.1702Z" fill="#F9F6FF"/>
<path d="M18.5292 19.6456C18.3505 19.5913 18.1802 19.5548 18.0218 19.4893C16.3824 18.8091 14.8737 17.9316 13.6786 16.5865C12.999 15.8216 12.467 14.9581 12.0174 14.0442C11.8042 13.6108 11.6245 13.1605 11.4413 12.713C11.2743 12.305 11.5203 11.8835 11.7793 11.576C12.0223 11.2874 12.3352 11.0667 12.6739 10.9039C12.9383 10.7769 13.199 10.8501 13.3922 11.0742C13.8095 11.5587 14.193 12.0679 14.5034 12.6296C14.6943 12.975 14.642 13.3973 14.2959 13.6323C14.2118 13.6894 14.1352 13.7566 14.0568 13.8211C13.9881 13.8776 13.9235 13.9348 13.8763 14.0113C13.7903 14.1514 13.7862 14.3167 13.8415 14.469C14.2682 15.6416 14.9874 16.5534 16.1677 17.0446C16.3566 17.1232 16.5462 17.2146 16.7638 17.1893C17.1282 17.1468 17.2462 16.747 17.5016 16.5382C17.7512 16.3341 18.0702 16.3314 18.339 16.5016C18.6079 16.6718 18.8685 16.8544 19.1277 17.0391C19.382 17.2204 19.6352 17.3976 19.8698 17.6043C20.0954 17.8029 20.1731 18.0636 20.046 18.3331C19.8135 18.8269 19.4751 19.2376 18.987 19.4999C18.8492 19.5738 18.6846 19.5977 18.5292 19.6456C18.6846 19.5977 18.3505 19.5913 18.5292 19.6456Z" fill="#F9F6FF"/>
<path d="M16.0046 10.3387C18.1489 10.3989 19.9102 11.8219 20.2877 13.9419C20.352 14.3032 20.3749 14.6724 20.4035 15.0391C20.4156 15.1933 20.3282 15.3398 20.1618 15.3419C19.9899 15.3439 19.9126 15.2001 19.9014 15.046C19.8793 14.7409 19.864 14.4343 19.8219 14.1318C19.6 12.5344 18.3262 11.2128 16.7362 10.9292C16.4969 10.8866 16.2522 10.8754 16.0097 10.8499C15.8565 10.8339 15.6559 10.8246 15.622 10.6341C15.5935 10.4744 15.7283 10.3473 15.8804 10.3391C15.9215 10.3367 15.9631 10.3386 16.0046 10.3387C18.149 10.3989 15.9631 10.3386 16.0046 10.3387Z" fill="#F9F6FF"/>
<path d="M19.2632 14.5635C19.2597 14.5903 19.2578 14.6533 19.2421 14.7125C19.1852 14.9278 18.8587 14.9547 18.7837 14.7375C18.7613 14.6731 18.758 14.5997 18.7579 14.5303C18.7572 14.0762 18.6585 13.6225 18.4294 13.2273C18.194 12.8211 17.8342 12.4798 17.4124 12.2731C17.1573 12.1482 16.8815 12.0705 16.6018 12.0243C16.4797 12.0041 16.3562 11.9919 16.2333 11.9748C16.0845 11.9541 16.005 11.8593 16.0122 11.7126C16.0187 11.5753 16.1192 11.4763 16.2689 11.4849C16.761 11.5128 17.2363 11.6193 17.6739 11.8509C18.5635 12.3221 19.0718 13.0657 19.2202 14.0588C19.2269 14.1038 19.2376 14.1483 19.241 14.1935C19.2494 14.3048 19.2547 14.4164 19.2632 14.5635C19.2597 14.5902 19.2547 14.4164 19.2632 14.5635Z" fill="#F9F6FF"/>
<path d="M17.9289 14.5117C17.7495 14.515 17.6535 14.4156 17.6349 14.2512C17.6221 14.1366 17.6119 14.0204 17.5845 13.9087C17.5306 13.6889 17.4138 13.4853 17.2289 13.3506C17.1417 13.287 17.0428 13.2407 16.9392 13.2107C16.8076 13.1727 16.6709 13.1832 16.5397 13.151C16.3971 13.1161 16.3183 13.0006 16.3407 12.8669C16.3611 12.7452 16.4794 12.6502 16.6125 12.6599C17.4439 12.7199 18.0381 13.1497 18.1229 14.1284C18.1289 14.1975 18.1359 14.2704 18.1206 14.3366C18.0943 14.4495 18.0105 14.5062 17.9289 14.5117C18.0105 14.5062 17.7494 14.5149 17.9289 14.5117Z" fill="#F9F6FF"/>
<path d="M18.5288 19.6458C18.35 19.5915 18.6842 19.5979 18.5288 19.6458V19.6458Z" fill="white"/>
<path d="M16.0039 10.3389C16.0057 10.3389 16.0075 10.3391 16.0093 10.3391C16.1283 10.3433 18.0638 10.3966 16.0039 10.3389Z" fill="white"/>
<path d="M19.2635 14.5638C19.255 14.4166 19.2599 14.5904 19.2635 14.5638V14.5638Z" fill="white"/>
<path d="M17.9302 14.5117C17.933 14.5115 17.9357 14.5101 17.9383 14.5098C17.9308 14.5098 17.9192 14.51 17.9072 14.5104C17.915 14.5106 17.922 14.5118 17.9302 14.5117Z" fill="white"/>
<path d="M17.9296 14.5121C17.9216 14.5122 17.9144 14.511 17.9067 14.5107C17.8679 14.5118 17.8278 14.5139 17.9296 14.5121Z" fill="white"/>
<path d="M17.9379 14.5098C17.9351 14.5101 17.9324 14.5115 17.9297 14.5117C17.9507 14.5103 17.9489 14.5098 17.9379 14.5098Z" fill="white"/>
</g>
<defs>
<clipPath id="clip0_468_307">
<rect width="32" height="32" fill="white"/>
</clipPath>
</defs>
</svg>
