<svg width="119" height="28" viewBox="0 0 119 28" fill="none" xmlns="http://www.w3.org/2000/svg">
<path d="M18.115 22.545V27H0.925V22.545H7.315V6.84C7.045 7.2 6.625 7.575 6.055 7.965C5.485 8.355 4.84 8.73 4.12 9.09C3.43 9.42 2.725 9.69 2.005 9.9C1.285 10.11 0.625 10.215 0.0250001 10.215V5.58C0.625 5.58 1.315 5.4 2.095 5.04C2.875 4.68 3.64 4.26 4.39 3.78C5.17 3.27 5.83 2.79 6.37 2.34C6.91 1.86 7.225 1.515 7.315 1.305H12.4V22.545H18.115ZM44.5166 13.815C44.5166 16.455 44.0066 18.81 42.9866 20.88C41.9966 22.92 40.6316 24.525 38.8916 25.695C37.1816 26.865 35.2166 27.45 32.9966 27.45C30.8066 27.45 28.8416 26.865 27.1016 25.695C25.3616 24.525 23.9816 22.92 22.9616 20.88C21.9716 18.81 21.4766 16.455 21.4766 13.815C21.4766 11.175 21.9716 8.835 22.9616 6.795C23.9816 4.725 25.3616 3.105 27.1016 1.935C28.8416 0.734999 30.8066 0.135 32.9966 0.135C35.2166 0.135 37.1816 0.734999 38.8916 1.935C40.6316 3.105 41.9966 4.725 42.9866 6.795C44.0066 8.835 44.5166 11.175 44.5166 13.815ZM39.4766 13.815C39.4766 12.015 39.2066 10.44 38.6666 9.09C38.1266 7.71 37.3616 6.645 36.3716 5.895C35.3816 5.115 34.2566 4.725 32.9966 4.725C31.7066 4.725 30.5666 5.115 29.5766 5.895C28.5866 6.645 27.8066 7.71 27.2366 9.09C26.6966 10.44 26.4266 12.015 26.4266 13.815C26.4266 15.615 26.6966 17.19 27.2366 18.54C27.8066 19.89 28.5866 20.955 29.5766 21.735C30.5666 22.485 31.7066 22.86 32.9966 22.86C34.2566 22.86 35.3666 22.485 36.3266 21.735C37.3166 20.955 38.0816 19.89 38.6216 18.54C39.1916 17.19 39.4766 15.615 39.4766 13.815ZM72.1582 13.815C72.1582 16.455 71.6482 18.81 70.6282 20.88C69.6382 22.92 68.2732 24.525 66.5332 25.695C64.8232 26.865 62.8582 27.45 60.6382 27.45C58.4482 27.45 56.4832 26.865 54.7432 25.695C53.0032 24.525 51.6232 22.92 50.6032 20.88C49.6132 18.81 49.1182 16.455 49.1182 13.815C49.1182 11.175 49.6132 8.835 50.6032 6.795C51.6232 4.725 53.0032 3.105 54.7432 1.935C56.4832 0.734999 58.4482 0.135 60.6382 0.135C62.8582 0.135 64.8232 0.734999 66.5332 1.935C68.2732 3.105 69.6382 4.725 70.6282 6.795C71.6482 8.835 72.1582 11.175 72.1582 13.815ZM67.1182 13.815C67.1182 12.015 66.8482 10.44 66.3082 9.09C65.7682 7.71 65.0032 6.645 64.0132 5.895C63.0232 5.115 61.8982 4.725 60.6382 4.725C59.3482 4.725 58.2082 5.115 57.2182 5.895C56.2282 6.645 55.4482 7.71 54.8782 9.09C54.3382 10.44 54.0682 12.015 54.0682 13.815C54.0682 15.615 54.3382 17.19 54.8782 18.54C55.4482 19.89 56.2282 20.955 57.2182 21.735C58.2082 22.485 59.3482 22.86 60.6382 22.86C61.8982 22.86 63.0082 22.485 63.9682 21.735C64.9582 20.955 65.7232 19.89 66.2632 18.54C66.8332 17.19 67.1182 15.615 67.1182 13.815ZM99.7998 13.815C99.7998 16.455 99.2898 18.81 98.2698 20.88C97.2798 22.92 95.9148 24.525 94.1748 25.695C92.4648 26.865 90.4998 27.45 88.2798 27.45C86.0898 27.45 84.1248 26.865 82.3848 25.695C80.6448 24.525 79.2648 22.92 78.2448 20.88C77.2548 18.81 76.7598 16.455 76.7598 13.815C76.7598 11.175 77.2548 8.835 78.2448 6.795C79.2648 4.725 80.6448 3.105 82.3848 1.935C84.1248 0.734999 86.0898 0.135 88.2798 0.135C90.4998 0.135 92.4648 0.734999 94.1748 1.935C95.9148 3.105 97.2798 4.725 98.2698 6.795C99.2898 8.835 99.7998 11.175 99.7998 13.815ZM94.7598 13.815C94.7598 12.015 94.4898 10.44 93.9498 9.09C93.4098 7.71 92.6448 6.645 91.6548 5.895C90.6648 5.115 89.5398 4.725 88.2798 4.725C86.9898 4.725 85.8498 5.115 84.8598 5.895C83.8698 6.645 83.0898 7.71 82.5198 9.09C81.9798 10.44 81.7098 12.015 81.7098 13.815C81.7098 15.615 81.9798 17.19 82.5198 18.54C83.0898 19.89 83.8698 20.955 84.8598 21.735C85.8498 22.485 86.9898 22.86 88.2798 22.86C89.5398 22.86 90.6498 22.485 91.6098 21.735C92.5998 20.955 93.3648 19.89 93.9048 18.54C94.4748 17.19 94.7598 15.615 94.7598 13.815ZM118.756 9.045V13.005H113.761V18.45H109.306V13.005H104.311V9.045H109.306V3.6H113.761V9.045H118.756Z" fill="#FD7A22"/>
</svg>
