<svg width="78" height="60" viewBox="0 0 78 60" fill="none" xmlns="http://www.w3.org/2000/svg">
<path d="M16.3962 33.0024H4.47187C4.09547 33.0024 3.7793 33.3036 3.7793 33.695C3.7793 34.0865 4.08042 34.3876 4.47187 34.3876H16.3962C16.7726 34.3876 17.0888 34.0865 17.0888 33.695C17.0888 33.3036 16.7877 33.0024 16.3962 33.0024Z" fill="#6747FA"/>
<path d="M16.3962 37.2637H4.47187C4.09547 37.2637 3.7793 37.5648 3.7793 37.9562C3.7793 38.3326 4.08042 38.6488 4.47187 38.6488H16.3962C16.7726 38.6488 17.0888 38.3477 17.0888 37.9562C17.0888 37.5648 16.7877 37.2637 16.3962 37.2637Z" fill="#6747FA"/>
<path d="M12.1201 47.6372C10.0123 47.6372 8.2959 49.3536 8.2959 51.4614C8.2959 53.5693 10.0123 55.2857 12.1201 55.2857C14.228 55.2857 15.9443 53.5693 15.9443 51.4614C15.9443 49.3536 14.228 47.6372 12.1201 47.6372ZM12.1201 53.9306C10.7651 53.9306 9.66599 52.8315 9.66599 51.4765C9.66599 50.1214 10.7651 49.0224 12.1201 49.0224C13.4752 49.0224 14.5743 50.1214 14.5743 51.4765C14.5743 52.8315 13.4752 53.9306 12.1201 53.9306Z" fill="#6747FA"/>
<path d="M68.5651 24.9629C68.264 24.3456 67.6317 23.9541 66.9391 23.9541H58.9745C57.9055 23.9541 57.0322 24.8273 57.0322 25.8963V35.9387C57.0322 37.0077 57.9055 37.8809 58.9745 37.8809H71.0494C71.9828 37.8809 72.7356 37.1281 72.7356 36.1946V34.2524C72.7356 33.7254 72.6152 33.2135 72.3893 32.7317L68.5651 24.9629ZM71.3806 36.1946C71.3806 36.3753 71.2451 36.5108 71.0644 36.5108H58.9895C58.6733 36.5108 58.4174 36.2549 58.4174 35.9387V25.8963C58.4174 25.5801 58.6733 25.3242 58.9895 25.3242H66.9541C67.1198 25.3242 67.2703 25.4145 67.3456 25.5651L71.1849 33.349C71.3204 33.6351 71.3957 33.9513 71.3957 34.2524V36.1946H71.3806Z" fill="#6747FA"/>
<path d="M63.7627 47.6372C61.6549 47.6372 59.9385 49.3536 59.9385 51.4614C59.9385 53.5693 61.6549 55.2857 63.7627 55.2857C65.8705 55.2857 67.5869 53.5693 67.5869 51.4614C67.602 49.3536 65.8705 47.6372 63.7627 47.6372ZM63.7627 53.9306C62.4077 53.9306 61.3086 52.8315 61.3086 51.4765C61.3086 50.1214 62.4077 49.0224 63.7627 49.0224C65.1177 49.0224 66.2168 50.1214 66.2168 51.4765C66.2168 52.8315 65.1177 53.9306 63.7627 53.9306Z" fill="#6747FA"/>
<path d="M76.4544 31.1659L72.4495 23.0507C71.4106 20.9278 69.2877 19.618 66.939 19.618H54.0661V4.03501C54.0661 1.80672 52.2594 0 50.0311 0H4.03501C1.80672 0 0 1.80672 0 4.03501V49.3235C0 50.8893 1.2647 52.154 2.83053 52.154H3.80917C4.15546 56.4299 7.75384 59.8024 12.1201 59.8024C16.4863 59.8024 20.0847 56.4299 20.431 52.154H55.4513C55.7975 56.4299 59.3959 59.8024 63.7622 59.8024C68.1284 59.8024 71.7268 56.4299 72.0731 52.154H73.5787C75.5059 52.154 77.0867 50.5882 77.0867 48.6459V33.876C77.0867 32.9425 76.8609 32.0091 76.4544 31.1659ZM19.4674 1.3701H32.3704V18.5942C32.3704 18.7297 32.2801 18.8049 32.2349 18.8501C32.1897 18.8802 32.0693 18.9254 31.9488 18.8652L26.6943 16.14C26.2125 15.8841 25.6404 15.8841 25.1586 16.14L19.904 18.8652C19.7836 18.9254 19.6631 18.8802 19.618 18.8501C19.5728 18.82 19.4825 18.7447 19.4825 18.5942V1.3701H19.4674ZM2.83053 50.7839C2.03256 50.7839 1.3701 50.1365 1.3701 49.3235V44.5055H7.54306C5.46533 45.8756 4.01995 48.1642 3.80917 50.7839H2.83053ZM12.1201 58.4323C8.2808 58.4323 5.14915 55.3007 5.14915 51.4614C5.14915 47.6221 8.2808 44.4905 12.1201 44.4905C15.9594 44.4905 19.091 47.6221 19.091 51.4614C19.091 55.3158 15.9594 58.4323 12.1201 58.4323ZM52.696 50.7839H20.431C20.2202 48.1642 18.7899 45.8756 16.6971 44.5055H52.681V50.7839H52.696ZM52.696 43.1354H1.3701V4.03501C1.3701 2.55952 2.57458 1.3701 4.03501 1.3701H18.0973V18.5942C18.0973 19.1813 18.3984 19.7083 18.8953 20.0094C19.1663 20.175 19.4524 20.2503 19.7535 20.2503C20.0094 20.2503 20.2804 20.1901 20.5213 20.0546L25.7759 17.3295C25.8662 17.2843 25.9566 17.2843 26.0469 17.3295L31.3014 20.0546C31.8284 20.3256 32.4306 20.3105 32.9275 19.9944C33.4243 19.6932 33.7254 19.1663 33.7254 18.5791V1.3701H50.001C51.4765 1.3701 52.6659 2.57458 52.6659 4.03501V43.1354H52.696ZM63.7622 58.4323C59.9229 58.4323 56.7912 55.3007 56.7912 51.4614C56.7912 47.6221 59.9229 44.4905 63.7622 44.4905C67.6015 44.4905 70.7331 47.6221 70.7331 51.4614C70.7331 55.3158 67.6015 58.4323 63.7622 58.4323ZM75.7166 48.661C75.7166 49.8354 74.7681 50.7839 73.5937 50.7839H72.0881C71.7419 46.508 68.1435 43.1354 63.7772 43.1354C59.411 43.1354 55.8126 46.508 55.4663 50.7839H54.0661V20.9881H66.939C68.7758 20.9881 70.4169 22.0119 71.23 23.653L75.2349 31.7682C75.551 32.4156 75.7317 33.1533 75.7317 33.876V48.661H75.7166Z" fill="#6747FA"/>
</svg>
