<svg width="86" height="91" viewBox="0 0 86 91" fill="none" xmlns="http://www.w3.org/2000/svg">
<path d="M63.8415 27.1098C75.4642 38.7325 75.4641 57.5766 63.8414 69.1994C52.2186 80.8221 33.3745 80.8222 21.7518 69.1995C10.1291 57.5768 10.1292 38.7327 21.7519 27.1099C33.3747 15.4872 52.2188 15.4872 63.8415 27.1098Z" stroke="#6747FA"/>
<path d="M45.2608 49.9071L45.2619 49.906C47.2054 47.9222 50.83 47.7697 52.9497 49.6692L52.9496 49.6692L52.9554 49.6742C53.4386 50.0941 53.8452 50.6098 54.291 51.1752L54.3132 51.2034C54.7564 51.7656 55.2388 52.3738 55.8403 52.8817C56.4548 53.4115 57.2583 53.8061 58.072 53.9389C58.8881 54.072 59.7674 53.9468 60.4483 53.3553L60.4557 53.3488L60.463 53.342C61.1479 52.6976 61.3509 51.8123 61.3068 50.9627C61.2628 50.115 60.9732 49.2465 60.5995 48.5318L60.5981 48.5292C60.4737 48.2945 60.348 48.0694 60.2247 47.8486C59.979 47.4084 59.7428 46.9854 59.5448 46.5377C59.2557 45.8845 59.0898 45.2609 59.1493 44.6288C59.2256 43.8268 59.7372 43.1329 60.4945 42.6683C61.2534 42.2027 62.2092 42.0017 63.0707 42.1575L63.0717 42.1577C64.8073 42.468 66.2496 43.8852 67.2564 45.5965L67.2578 45.5988C67.747 46.4202 68.1449 47.3036 68.5321 48.2197C68.6249 48.4393 68.7174 48.6616 68.8105 48.8853C69.1018 49.5851 69.3989 50.299 69.7292 50.9883L69.7291 50.9884L69.7344 50.9989C70.2651 52.043 70.9965 53.1683 72.015 53.8559C71.8455 54.6959 71.6425 55.5429 71.4026 56.3782C69.7395 62.166 66.4857 67.0503 62.2343 70.6865C61.5168 69.9921 60.879 69.1134 60.3326 68.3208L60.3278 68.3139L60.3228 68.3071C59.3386 66.9771 58.556 65.458 57.9852 63.9044C57.9174 63.7048 57.8509 63.501 57.7836 63.2945C57.4611 62.3054 57.1178 61.2528 56.5113 60.3034L56.5105 60.3022C54.9811 57.9225 51.6854 56.8258 49.0387 57.8905C48.8286 57.9631 48.6257 58.0494 48.4361 58.1326C48.3881 58.1537 48.3412 58.1744 48.2952 58.1948C48.1506 58.2587 48.0146 58.3189 47.8757 58.375C47.5121 58.5217 47.1988 58.6097 46.8911 58.6001L46.8756 59.0998L46.8911 58.6001C46.2621 58.5805 45.6527 58.1937 45.1205 57.6115C43.2301 55.5345 43.2699 51.9273 45.2608 49.9071Z" stroke="#6747FA"/>
<path d="M71.4015 56.3738L71.4009 56.3762C69.7364 62.1666 66.4848 67.0519 62.2314 70.6839C61.5154 69.9919 60.8777 69.1123 60.3317 68.3203L60.3271 68.3138L60.3224 68.3073C59.3408 66.9768 58.5562 65.4578 57.9837 63.9035C57.9323 63.7492 57.8811 63.5918 57.8294 63.433C57.7667 63.2401 57.7032 63.0453 57.638 62.8513C60.4709 60.1955 62.8395 56.9601 64.5552 53.2207L64.5554 53.2203C65.7603 50.5891 66.5612 47.8771 66.9825 45.1541C67.0776 45.2993 67.1695 45.4473 67.2587 45.5972C67.7477 46.419 68.1449 47.3021 68.532 48.2178C68.6219 48.4305 68.7116 48.6457 68.8018 48.8622C69.0961 49.5685 69.3964 50.2893 69.7316 50.9858L69.7315 50.9859L69.7364 50.9954C70.2681 52.0421 70.9994 53.1661 72.015 53.8547C71.8466 54.6969 71.6448 55.5434 71.4015 56.3738Z" stroke="#6747FA"/>
<path d="M48.4534 74.3168C48.6254 72.2248 48.2401 70.0117 46.9849 68.3276C45.7425 66.6417 43.4968 65.6204 41.4749 66.1694L48.4534 74.3168ZM48.4534 74.3168C48.3586 75.4732 48.1745 76.7199 47.8778 77.9839L48.4534 74.3168ZM19.895 57.0136L19.895 57.0136L19.8967 57.0114C20.8422 55.7909 21.7775 54.6383 23.0418 54.0509C23.6481 53.7692 24.3704 53.6661 25.0305 53.7701C25.6882 53.8738 26.2482 54.1753 26.5942 54.6657C27.193 55.5296 27.0411 56.6328 26.7908 58.0194C26.7841 58.0565 26.7774 58.0939 26.7706 58.1314C26.657 58.7583 26.535 59.4322 26.5176 60.0861C26.4989 60.7875 26.598 61.507 26.9771 62.1743L27.0657 62.3302L27.2332 62.3943C27.8303 62.6227 28.4216 62.5717 28.9609 62.422C29.4608 62.2832 29.9574 62.0468 30.4047 61.8338C30.4307 61.8215 30.4565 61.8092 30.4821 61.797C30.9698 61.5652 31.3986 61.3682 31.8047 61.2738C32.196 61.1829 32.5248 61.1975 32.8299 61.3529C33.1887 61.5386 33.4215 61.89 33.5501 62.3874C33.6797 62.8881 33.6872 63.4824 33.6323 64.0442C33.628 64.0846 33.6235 64.1254 33.619 64.1667C33.5586 64.7174 33.4889 65.3531 33.53 65.9589C33.5748 66.6187 33.7535 67.3057 34.2647 67.8597C34.7958 68.4489 35.5248 68.6856 36.2412 68.7136C36.9558 68.7416 37.6949 68.5658 38.3221 68.288L38.3222 68.288L38.3265 68.286C38.7876 68.0764 39.2338 67.8169 39.6531 67.573C39.7776 67.5006 39.8997 67.4295 40.0192 67.3616C40.557 67.0556 41.0646 66.7969 41.6042 66.6524L41.6059 66.6519C43.3884 66.1679 45.4356 67.0681 46.5824 68.6242L46.584 68.6264C47.7441 70.1828 48.1207 72.2617 47.9551 74.2758L47.9551 74.2759C47.8701 75.3127 47.7119 76.4235 47.4631 77.5528C47.3914 77.5645 47.3175 77.5756 47.2405 77.5873L47.2405 77.5873C33.8136 79.6142 21.1384 72.3319 15.7482 60.5782C15.9744 60.4989 16.199 60.4051 16.4152 60.295C17.9034 59.5548 18.9598 58.2069 19.8921 57.0173L19.895 57.0136Z" stroke="#6747FA"/>
<path d="M16.4139 60.2922C17.1749 59.9154 17.8182 59.3818 18.3891 58.7947C18.7015 62.0628 19.5325 65.2546 20.8373 68.2446C18.7771 65.9955 17.0488 63.4161 15.7472 60.5788C15.9753 60.4983 16.1999 60.4026 16.4139 60.2922Z" stroke="#6747FA"/>
<path d="M22.6122 70.7004C22.5267 70.6209 22.441 70.5476 22.3555 70.4619C22.441 70.5476 22.5205 70.6209 22.606 70.6881C22.606 70.7004 22.6122 70.7004 22.6122 70.7004Z" fill="#FCB0B0"/>
<path d="M23.0099 70.3851C22.439 69.3551 21.9301 68.2926 21.4853 67.206C22.2248 67.6244 22.9864 68.0143 23.7732 68.3742L23.0099 70.3851ZM23.0099 70.3851C29.3883 76.0582 38.1403 78.9607 47.239 77.5902C47.2639 77.586 47.2886 77.5819 47.3133 77.5778C47.3641 77.5694 47.4145 77.5611 47.4647 77.5526C47.7106 76.4231 47.8684 75.313 47.956 74.2777C48.0973 72.5527 47.8421 70.7825 47.0396 69.3334M23.0099 70.3851L47.0396 69.3334M47.0396 69.3334C39.7226 71.9808 31.403 71.8715 23.7736 68.3743L47.0396 69.3334Z" stroke="#6747FA"/>
<path d="M31.9021 21.0403C31.6896 23.8741 33.2108 26.765 35.6558 28.2036C35.4786 28.2888 35.3022 28.3756 35.1266 28.4642M31.9021 21.0403C31.9147 20.8429 31.9368 20.6423 31.9662 20.441C31.788 20.5104 31.6108 20.5814 31.4345 20.654M31.9021 21.0403L31.4035 21.0029C31.4035 21.0038 31.4034 21.0048 31.4033 21.0057M31.9021 21.0403L31.4032 21.0086C31.4032 21.0076 31.4033 21.0067 31.4033 21.0057M31.4345 20.654C31.456 20.4622 31.4845 20.2703 31.5177 20.0805C20.9638 24.3066 13.8654 34.0412 12.706 44.9555C12.8757 44.922 13.0468 44.892 13.2187 44.8657M31.4345 20.654C21.2504 24.8477 14.3951 34.2824 13.2187 44.8657M31.4345 20.654C31.4214 20.7714 31.4108 20.8888 31.4033 21.0057M13.2187 44.8657C13.1997 45.0369 13.1821 45.2085 13.1661 45.3803C13.436 45.3359 13.7088 45.3006 13.9816 45.2744M13.2187 44.8657C13.4562 44.8292 13.6952 44.7996 13.9339 44.7767M13.9816 45.2744C15.7541 45.1034 17.5632 45.2744 19.2503 45.8246M13.9816 45.2744L13.9336 44.7768C13.9337 44.7767 13.9338 44.7767 13.9339 44.7767M13.9816 45.2744L13.9339 44.7767M19.2503 45.8246C19.4634 45.891 19.6726 45.9654 19.8812 46.0421C19.9337 45.8842 19.9876 45.7264 20.0431 45.5689M19.2503 45.8246L19.4053 45.3492C19.4042 45.3489 19.4032 45.3485 19.4021 45.3482M19.2503 45.8246L19.3991 45.3473C19.4001 45.3476 19.4011 45.3479 19.4021 45.3482M20.0431 45.5689C20.1254 45.5991 20.2069 45.6294 20.2872 45.6592C20.3632 45.6875 20.4382 45.7154 20.5121 45.7425C20.8001 44.9243 21.1304 44.1111 21.4993 43.3064M20.0431 45.5689C20.3358 44.7383 20.6709 43.9135 21.0448 43.0981M20.0431 45.5689C19.8341 45.4922 19.6193 45.416 19.4021 45.3482M21.4993 43.3064C24.5165 36.7209 29.603 31.7334 35.6386 28.7679C35.4637 28.6733 35.293 28.572 35.1266 28.4642M21.4993 43.3064L21.0448 43.098C21.0448 43.098 21.0448 43.0981 21.0448 43.0981M21.4993 43.3064L21.0448 43.0981M35.1266 28.4642C32.6801 26.8801 31.1859 23.92 31.4033 21.0057M35.1266 28.4642C29.1192 31.4951 24.063 36.5104 21.0448 43.0981M19.4021 45.3482C17.6456 44.7759 15.7682 44.5998 13.9339 44.7767" stroke="#6747FA"/>
<path d="M65.5589 12.6974C65.5589 21.4659 52.8615 37.5207 52.8615 37.5207C52.8615 37.5207 40.1641 21.4661 40.1641 12.6974C40.1641 5.68416 45.8482 0 52.8615 0C59.8748 0 65.5589 5.68416 65.5589 12.6974Z" fill="#6747FA"/>
<path d="M53.244 5.29633C53.244 10.8579 48.1371 19.3436 44.4014 24.8143C42.0719 20.5888 40.1621 16.0977 40.1621 12.6977C40.1621 5.93983 45.4438 0.420186 52.0967 0.0214844C52.8383 1.63065 53.244 3.41461 53.244 5.29633Z" fill="#6747FA"/>
<path d="M65.5566 12.6986C65.5566 21.4642 52.8596 37.5192 52.8596 37.5192C52.8596 37.5192 51.5233 35.8333 49.7256 33.2588C52.5449 29.5161 61.6042 16.9169 61.6042 9.51556C61.6042 6.43056 60.5129 3.61125 58.6801 1.41455C62.7654 3.52034 65.5566 7.78056 65.5566 12.6986Z" fill="#6747FA"/>
<path d="M52.8619 21.5191C47.9951 21.5191 44.0361 17.5621 44.0361 12.6979C44.0361 7.83102 47.9951 3.87207 52.8619 3.87207C57.7262 3.87207 61.6831 7.83102 61.6831 12.6979C61.6833 17.5621 57.7262 21.5191 52.8619 21.5191ZM52.8619 5.17785C48.7156 5.17785 45.3419 8.55155 45.3419 12.6979C45.3419 16.8417 48.7156 20.2135 52.8619 20.2135C57.0058 20.2135 60.3775 16.8417 60.3775 12.6979C60.3775 8.55155 57.0058 5.17785 52.8619 5.17785Z" fill="white"/>
</svg>
