<svg width="32" height="32" viewBox="0 0 32 32" fill="none" xmlns="http://www.w3.org/2000/svg">
<g clip-path="url(#clip0_468_302)">
<mask id="mask0_468_302" style="mask-type:alpha" maskUnits="userSpaceOnUse" x="0" y="0" width="32" height="32">
<circle cx="16" cy="16" r="16" fill="#C4C4C4"/>
</mask>
<g mask="url(#mask0_468_302)">
<path opacity="0.1" d="M2.09336 2.2285C-0.421302 4.8405 0.0933646 7.61517 0.0933646 16.0445C0.0933646 23.0445 -1.12797 30.0618 5.26403 31.7138C7.26003 32.2272 24.9454 32.2272 26.9387 31.7112C29.6 31.0245 31.7654 28.8658 32.0614 25.1018C32.1027 24.5765 32.1027 7.52184 32.06 6.98584C31.7454 2.9765 29.2774 0.665835 26.0254 0.197835C25.28 0.0898353 25.1307 0.0578353 21.3067 0.0511686C7.7427 0.0578353 4.76936 -0.546165 2.09336 2.2285Z" fill="#F9F6FF"/>
</g>
<path d="M16.0002 7.00868C12.3138 7.00868 8.81324 6.68076 7.47616 10.1123C6.92386 11.5296 7.00406 13.3703 7.00406 16.0059C7.00406 18.3186 6.92995 20.4923 7.47616 21.8984C8.8102 25.332 12.3392 25.003 15.9982 25.003C19.5282 25.003 23.1679 25.3706 24.5212 21.8984C25.0746 20.4669 24.9933 18.6536 24.9933 16.0059C24.9933 12.4911 25.1873 10.222 23.4826 8.51836C21.7567 6.79243 19.4226 7.00868 15.9962 7.00868H16.0002ZM15.1941 8.63004C22.8836 8.61786 23.8623 7.76302 23.3222 19.6384C23.1303 23.8385 19.9323 23.3776 16.0012 23.3776C8.83355 23.3776 8.62745 23.1725 8.62745 16.0018C8.62745 8.74781 9.19599 8.6341 15.1941 8.62801V8.63004ZM20.8024 10.1235C20.2064 10.1235 19.7232 10.6067 19.7232 11.2027C19.7232 11.7986 20.2064 12.2819 20.8024 12.2819C21.3983 12.2819 21.8816 11.7986 21.8816 11.2027C21.8816 10.6067 21.3983 10.1235 20.8024 10.1235ZM16.0002 11.3854C13.4489 11.3854 11.3808 13.4545 11.3808 16.0059C11.3808 18.5572 13.4489 20.6253 16.0002 20.6253C18.5516 20.6253 20.6186 18.5572 20.6186 16.0059C20.6186 13.4545 18.5516 11.3854 16.0002 11.3854ZM16.0002 13.0068C19.9648 13.0068 19.9699 19.0049 16.0002 19.0049C12.0367 19.0049 12.0306 13.0068 16.0002 13.0068Z" fill="#F9F6FF"/>
</g>
<defs>
<clipPath id="clip0_468_302">
<rect width="32" height="32" fill="white"/>
</clipPath>
</defs>
</svg>
